<?xml version="1.0" encoding="utf-8"?>
<!-- Generator: Adobe Illustrator 23.0.3, SVG Export Plug-In . SVG Version: 6.00 Build 0)  -->
<svg version="1.1" id="圖層_1" xmlns="http://www.w3.org/2000/svg" xmlns:xlink="http://www.w3.org/1999/xlink" x="0px" y="0px"
	 viewBox="0 0 500 108" style="enable-background:new 0 0 500 108;" xml:space="preserve">
<style type="text/css">
	.st0{fill:#EC1C24;}
	.st1{fill:#FFCA05;}
	.st2{fill:#4AB869;}
	.st3{fill:#1277BC;}
</style>
<g>
	<g>
		<path class="st0" d="M279.5,107.5h-16.4c-1.9,0-3.3-1.8-2.7-3.6L292.2,1.8c0.4-1.2,1.5-2,2.7-2h16.4c1.9,0,3.2,1.8,2.7,3.6
			l-31.8,102.1C281.9,106.7,280.8,107.5,279.5,107.5z"/>
		<path class="st0" d="M319.2,36.4V17.9c0-2,2-3.4,3.9-2.6l61.2,26.9c1.1,0.4,1.8,1.5,1.8,2.6v19.5c0,1.2-0.7,2.2-1.8,2.6L323,94
			c-1.9,0.7-3.9-0.6-3.9-2.6V72.8c0-1.2,0.8-2.3,1.9-2.7l36.7-15.5L321,39.1C319.9,38.7,319.2,37.6,319.2,36.4z"/>
	</g>
	<g>
		<path class="st1" d="M19.4,107.5H3c-1.9,0-3.3-1.8-2.7-3.6L32.1,1.8c0.4-1.2,1.5-2,2.7-2h16.4c1.9,0,3.2,1.8,2.7,3.6L22.1,105.5
			C21.8,106.7,20.7,107.5,19.4,107.5z"/>
		<path class="st1" d="M119,39.1L82.3,54.6L119,70.1c1.1,0.4,1.9,1.5,1.9,2.7v18.5c0,2-2,3.4-3.9,2.6L55.9,67
			c-1.1-0.4-1.8-1.5-1.8-2.6V44.8c0-1.2,0.7-2.2,1.8-2.6L117,15.3c1.9-0.7,3.9,0.6,3.9,2.6v18.5C120.9,37.6,120.1,38.7,119,39.1z"/>
	</g>
	<path class="st2" d="M452.9,29.3l-25.5,76.3c-0.4,1.2-1.5,2-2.7,2h-16.3c-1.9,0-3.3-1.9-2.7-3.7L441,1.7c0.4-1.2,1.5-1.9,2.7-1.9
		h18.2c1.2,0,2.3,0.8,2.7,1.9l35.3,102.1c0.6,1.8-0.8,3.7-2.7,3.7h-16.3c-1.2,0-2.3-0.8-2.7-2L452.9,29.3z"/>
	<g>
		<g>
			<path class="st3" d="M169.3,38.3l0-10.2c0-2.3,0.7-4.7,2.3-6.4c1.7-2,4.1-3.1,7-3.3v0h4.7c1.6,0,2.8-1.3,2.8-2.8V2.6
				c0-1.6-1.3-2.8-2.8-2.8h-4.7v0c-3.4,0-6.8,0.7-10.2,2.1c-3.4,1.4-6.4,3.3-9,5.8c-2.6,2.5-4.7,5.4-6.3,8.8
				c-1.6,3.4-2.4,7.2-2.4,11.2v10.2c0,1.5-0.5,2.8-1.6,3.9c-1.1,1.1-2.4,1.7-4,1.7c0,0-4.6,0-4.6,4.6c0,4,0,7.4,0,11.2
				c0,4.8,4.6,4.6,4.6,4.6c1.6,0,2.9,0.5,4,1.4c1.1,1,1.6,2.4,1.6,4.2v10.2c0,3.5,0.7,7,2.1,10.3c1.4,3.4,3.3,6.4,5.8,9
				c2.5,2.6,5.5,4.7,8.9,6.2c3.4,1.5,7.1,2.3,11,2.3v0h4.8c1.6,0,2.8-1.3,2.8-2.8V91.8c0-1.6-1.3-2.8-2.8-2.8h-4.7v0
				c-2.8-0.2-5-1.2-6.7-2.9c-1.7-1.7-2.6-3.8-2.6-6.4V68.6c0-2.7-0.4-5.3-1.2-7.9c-0.8-2.6-2.1-4.9-3.8-7c2-2.6,3.4-5.6,4.2-8.8
				C169.1,42.7,169.3,40.5,169.3,38.3z"/>
			<path class="st3" d="M211.9,38.3l0-10.2c0-2.3-0.7-4.7-2.3-6.4c-1.7-2-4.1-3.1-7-3.3v0h-4.7c-1.6,0-2.8-1.3-2.8-2.8V2.6
				c0-1.6,1.3-2.8,2.8-2.8h4.7v0c3.4,0,6.8,0.7,10.2,2.1c3.4,1.4,6.4,3.3,9,5.8c2.6,2.5,4.7,5.4,6.3,8.8c1.6,3.4,2.4,7.2,2.4,11.2
				v10.2c0,1.5,0.5,2.8,1.6,3.9c1.1,1.1,2.4,1.7,4,1.7c0,0,4.6,0,4.6,4.6c0,4,0,7.4,0,11.2c0,4.8-4.6,4.6-4.6,4.6
				c-1.6,0-2.9,0.5-4,1.4c-1.1,1-1.6,2.4-1.6,4.2v10.2c0,3.5-0.7,7-2.1,10.3c-1.4,3.4-3.3,6.4-5.8,9c-2.5,2.6-5.5,4.7-8.9,6.2
				c-3.4,1.5-7.1,2.3-11,2.3v0h-4.8c-1.6,0-2.8-1.3-2.8-2.8V91.8c0-1.6,1.3-2.8,2.8-2.8h4.7v0c2.8-0.2,5-1.2,6.7-2.9
				c1.7-1.7,2.6-3.8,2.6-6.4V68.6c0-2.7,0.4-5.3,1.2-7.9c0.8-2.6,2.1-4.9,3.8-7c-2-2.6-3.4-5.6-4.2-8.8
				C212.1,42.7,211.9,40.5,211.9,38.3z"/>
		</g>
	</g>
</g>
</svg>
